<svg width="70" height="59" viewBox="0 0 70 59" fill="none" xmlns="http://www.w3.org/2000/svg">
<path d="M28.5273 13.181L28.5187 12.7536L28.8341 13.0222L44.9648 26.7585L45.4849 27.2014L44.8362 27.127L42.9492 26.9107L42.9492 26.9107L42.9449 26.9101L41.3716 26.6917L41.3168 26.6841L41.2731 26.6463L28.6507 15.7469L28.5772 15.6834L28.5752 15.5832L28.5273 13.181Z" fill="#0090FF" stroke="#BABABA" stroke-width="0.4"/>
<path d="M25.3298 12.8969L25.3229 12.5466L25.0387 12.7336L8.50361 23.6129L8.14216 23.8507L8.53723 23.9842L9.69068 24.3741L9.69063 24.3742L9.69816 24.3764L10.8554 24.712L10.9369 24.7356L11.0103 24.6869L25.2772 15.2117L25.3747 15.147L25.3723 15.0265L25.3298 12.8969Z" fill="#0090FF" stroke="#BABABA" stroke-width="0.4"/>
<path d="M39.3725 12.7663L39.364 12.3391L39.6793 12.6074L59.5591 29.5223L59.4024 29.8853L57.4083 29.3277L55.9417 28.9952L55.8982 28.9854L55.8625 28.9561L39.5046 15.5644L39.427 15.5009L39.425 15.3972L39.3725 12.7663Z" fill="#0090FF" stroke="#BABABA" stroke-width="0.4"/>
<path fill-rule="evenodd" clip-rule="evenodd" d="M29.0509 26.1883L36.454 26.3143L35.9369 12.2562L39.4552 12.6012L39.9318 26.4185C43.0026 26.8459 46.2161 26.7505 49.1036 27.4601C52.4386 28.0872 55.7736 28.7143 58.9253 29.6235C63.0529 30.8495 66.3047 33.7266 67.745 38.1791C68.6378 40.7459 68.8997 43.6773 67.6977 46.1335C67.3716 46.9385 66.598 47.8259 65.9268 47.9496C65.0317 48.1145 63.832 47.8389 63.2631 47.1988C62.9583 46.7584 62.9797 45.5129 63.0821 44.7491C63.6319 43.9029 64.4055 43.0155 65.2196 42.3689C66.7668 40.594 66.6667 38.626 65.0004 36.9466C62.846 35.1088 60.1823 34.358 57.5995 34.0889C51.9865 33.6332 46.5972 33.1362 41.0247 32.9213L40.1296 33.0862L40.4848 46.1809L37.0475 46.3176L36.6114 32.7412L29.3916 32.3332L29.6849 46.4325L26.0238 46.6103L25.4258 32.0706C24.0023 31.8362 22.843 31.8015 21.6433 31.5259C17.4133 31.0637 13.1832 30.6015 9.11741 28.3709C5.05158 26.1403 2.24733 23.1806 1.62109 18.0816C1.2568 15.914 1.56378 13.6227 2.88723 11.8891C3.07051 11.607 3.43707 11.0429 3.88458 10.9604C4.77961 10.7955 5.8984 10.5894 6.6911 11.1883C7.52428 12.028 7.5029 13.2735 6.76978 14.4017C6.21994 15.248 5.62962 15.8533 5.07977 16.6995C3.53257 18.4744 3.6731 20.6832 5.52274 22.0806C6.84391 23.0787 8.61259 23.9944 10.3003 24.4284C15.2826 25.2486 20.4076 25.546 25.6136 26.325L25.1775 12.7486L28.6957 13.0936L29.0509 26.1883Z" fill="#0090FF"/>
<path d="M36.0989 12.4389L36.0918 12.086L35.8066 12.2763L16.6847 25.0386L16.2536 25.3262L16.7447 25.4157L18.2144 25.6835L18.231 25.6865L18.2479 25.6864L19.5174 25.678L19.5712 25.6777L19.6181 25.6477L36.051 15.1426L36.1515 15.0783L36.1491 14.9554L36.0989 12.4389Z" fill="#0090FF" stroke="#BABABA" stroke-width="0.4"/>
</svg>
