<svg width="30" height="30" viewBox="0 0 30 30" fill="none" xmlns="http://www.w3.org/2000/svg">
<g clip-path="url(#clip0_170_234)">
<path d="M0 15C0 12.0333 0.879731 9.1332 2.52795 6.66646C4.17618 4.19973 6.51886 2.27713 9.25975 1.14182C12.0006 0.00650026 15.0166 -0.290551 17.9264 0.288227C20.8361 0.867005 23.5088 2.29561 25.6066 4.3934C27.7044 6.49119 29.133 9.16395 29.7118 12.0737C30.2905 14.9834 29.9935 17.9994 28.8581 20.7402C27.7229 23.4811 25.8003 25.8239 23.3335 27.472C20.8669 29.1203 17.9668 30 15 30C11.0218 30 7.20645 28.4196 4.3934 25.6066C1.58036 22.7936 0 18.9783 0 15Z" fill="url(#paint0_linear_170_234)"/>
<path d="M20.1674 22.4961L20.2863 22.4476L22.2805 21.2857L24.3376 20.0892C24.4475 20.0294 24.5468 19.9522 24.6315 19.861C24.7819 19.7024 24.8796 19.5021 24.9115 19.287C24.9115 19.1901 24.9115 14.4456 24.9115 14.3419C24.8735 14.1034 24.7638 13.8817 24.5966 13.7056C24.4401 13.5595 24.2634 13.4361 24.0718 13.3391L20.3283 11.1743C20.1711 11.1038 20.0006 11.0673 19.828 11.0673C19.6554 11.0673 19.4849 11.1038 19.3278 11.1743C19.2648 11.1743 18.8379 11.444 17.8933 11.9904L15.5983 13.3252L13.3311 14.6394C12.6314 15.0681 11.9807 15.4277 11.9317 15.4416C11.7735 15.521 11.5983 15.5612 11.4209 15.5591C11.2453 15.5596 11.0714 15.5242 10.9101 15.4554C10.8332 15.4554 8.74099 14.2174 8.62904 14.1344C8.51948 14.0521 8.4228 13.9542 8.34215 13.844C8.2526 13.7089 8.1886 13.559 8.15323 13.4014C8.12823 12.9406 8.12823 12.4788 8.15323 12.0181C8.09694 11.4812 8.11341 10.9392 8.20221 10.4066C8.24819 10.2766 8.31174 10.1533 8.39113 10.0401C8.47054 9.93274 8.5675 9.83922 8.67801 9.7634C8.76199 9.70807 10.7772 8.52542 10.8401 8.47701C11.0025 8.40314 11.1792 8.36489 11.3579 8.36489C11.5367 8.36489 11.7133 8.40314 11.8757 8.47701C11.9457 8.51159 13.9749 9.69424 14.1289 9.78415C14.277 9.88357 14.3994 10.0163 14.4856 10.1715C14.5419 10.2666 14.5843 10.369 14.6116 10.4758V10.5795V11.444C14.6116 11.9213 14.6116 12.3155 14.6116 12.3155L15.5423 11.7829L16.4589 11.2504V10.3859C16.4589 9.42452 16.4589 9.45909 16.3959 9.26544C16.3109 9.03266 16.1604 8.82874 15.9621 8.67759C15.8921 8.62917 12.0856 6.41599 11.9037 6.31916L11.7568 6.25H11.6938H10.9941L10.8891 6.2915C10.8122 6.32607 10.2734 6.6304 8.78998 7.488C7.69143 8.12429 6.76779 8.66374 6.7328 8.69141C6.60654 8.77835 6.49888 8.88909 6.41603 9.01727C6.33318 9.14545 6.27675 9.28855 6.25 9.43835C6.25 9.53517 6.25 9.61126 6.25 11.9766C6.25 14.3419 6.25 14.4249 6.25 14.5149C6.27691 14.6684 6.33654 14.8146 6.42492 14.9436C6.51606 15.0727 6.62701 15.1871 6.7538 15.2825C6.84476 15.3379 10.7282 17.5995 10.8262 17.6479C10.9936 17.7256 11.1764 17.7659 11.3614 17.7659C11.5465 17.7659 11.7292 17.7256 11.8967 17.6479L13.2961 16.8249C14.4368 16.1332 14.7935 15.9465 15.5563 15.5246C16.3189 15.1027 16.5289 14.9851 17.8234 14.2036L19.2228 13.3529C19.5161 13.2199 19.8508 13.2075 20.1534 13.3184C20.2023 13.3305 20.2494 13.3491 20.2934 13.3736C20.3773 13.4151 22.4834 14.6877 22.5464 14.7569C22.7855 14.9442 22.9451 15.2131 22.9943 15.5107C22.9943 15.6352 22.9943 18.215 22.9943 18.3395C22.9445 18.6457 22.7765 18.921 22.5254 19.1071C22.4555 19.1556 20.4263 20.359 20.2654 20.4281C20.1056 20.4985 19.9329 20.5349 19.758 20.5349C19.5833 20.5349 19.4104 20.4985 19.2508 20.4281C19.1948 20.4281 18.7889 20.1654 18.0963 19.7365L16.9696 19.0449C16.7689 18.8932 16.6179 18.6864 16.5359 18.4501C16.4799 18.2772 16.4799 18.3256 16.4729 17.3574V16.4721L15.5563 17.0046L14.6396 17.5372V18.4294C14.6396 19.3976 14.6396 19.3907 14.6886 19.5567C14.7284 19.6781 14.7874 19.7925 14.8635 19.8956C14.9424 20.0011 15.0366 20.0944 15.1434 20.1722C15.2064 20.2206 19.0758 22.4891 19.1668 22.5376C19.2578 22.586 19.3068 22.6136 19.6915 22.6136H20.0344L20.1674 22.4961Z" fill="white"/>
</g>
<defs>
<linearGradient id="paint0_linear_170_234" x1="44.4928" y1="48.162" x2="2.04875" y2="0.441372" gradientUnits="userSpaceOnUse">
<stop stop-color="#A762FF" stop-opacity="0.11"/>
<stop offset="0.41" stop-color="#5C19EB"/>
<stop offset="0.78" stop-color="#A586FF"/>
<stop offset="1" stop-color="#E2C5FF"/>
</linearGradient>
<clipPath id="clip0_170_234">
<rect width="30" height="30" fill="white"/>
</clipPath>
</defs>
</svg>
