<svg width="1510" height="1052" viewBox="0 0 1510 1052" fill="none" xmlns="http://www.w3.org/2000/svg">
<path opacity="0.13" d="M-2 1114.85C250 224.45 502 110.5 754 773C1006 1435.5 1258 1549.45 1510 1114.85" stroke="url(#paint0_linear_170_177)" stroke-width="2" stroke-linecap="round"/>
<path opacity="0.21" d="M-2 1071.13C250 209.875 502 110.5 754 773C1006 1435.5 1258 1534.88 1510 1071.13" stroke="url(#paint1_linear_170_177)" stroke-width="2" stroke-linecap="round"/>
<path opacity="0.56" d="M-2 1027.4C250 195.3 502 110.5 754 773C1006 1435.5 1258 1520.3 1510 1027.4" stroke="url(#paint2_linear_170_177)" stroke-width="2" stroke-linecap="round"/>
<path opacity="0.88" d="M-2 983.675C250 180.725 502 110.5 754 773C1006 1435.5 1258 1505.72 1510 983.675" stroke="url(#paint3_linear_170_177)" stroke-width="2" stroke-linecap="round"/>
<path opacity="0.37" d="M-2 939.95C250 166.15 502 110.5 754 773C1006 1435.5 1258 1491.15 1510 939.95" stroke="url(#paint4_linear_170_177)" stroke-width="2" stroke-linecap="round"/>
<path opacity="0.58" d="M-2 896.225C250 151.575 502 110.5 754 773C1006 1435.5 1258 1476.57 1510 896.225" stroke="url(#paint5_linear_170_177)" stroke-width="2" stroke-linecap="round"/>
<path opacity="0.88" d="M-2 852.5C250 137 502 110.5 754 773C1006 1435.5 1258 1462 1510 852.5" stroke="url(#paint6_linear_170_177)" stroke-width="2" stroke-linecap="round"/>
<path opacity="0.32" d="M-2 808.775C250 122.425 502 110.5 754 773C1006 1435.5 1258 1447.43 1510 808.775" stroke="url(#paint7_linear_170_177)" stroke-width="2" stroke-linecap="round"/>
<path opacity="0.79" d="M-2 765.05C250 107.85 502 110.5 754 773C1006 1435.5 1258 1432.85 1510 765.05" stroke="url(#paint8_linear_170_177)" stroke-width="2" stroke-linecap="round"/>
<path opacity="0.72" d="M-2 721.325C250 93.275 502 110.5 754 773C1006 1435.5 1258 1418.28 1510 721.325" stroke="url(#paint9_linear_170_177)" stroke-width="2" stroke-linecap="round"/>
<path opacity="0.29" d="M-2 677.6C250 78.7 502 110.5 754 773C1006 1435.5 1258 1403.7 1510 677.6" stroke="url(#paint10_linear_170_177)" stroke-width="2" stroke-linecap="round"/>
<path opacity="0.09" d="M-2 633.875C250 64.125 502 110.5 754 773C1006 1435.5 1258 1389.12 1510 633.875" stroke="url(#paint11_linear_170_177)" stroke-width="2" stroke-linecap="round"/>
<path opacity="0.95" d="M-2 590.15C250 49.55 502 110.5 754 773C1006 1435.5 1258 1374.55 1510 590.15" stroke="url(#paint12_linear_170_177)" stroke-width="2" stroke-linecap="round"/>
<path opacity="0.43" d="M-2 546.425C250 34.975 502 110.5 754 773C1006 1435.5 1258 1359.97 1510 546.425" stroke="url(#paint13_linear_170_177)" stroke-width="2" stroke-linecap="round"/>
<path opacity="0.97" d="M-2 502.7C250 20.4 502 110.5 754 773C1006 1435.5 1258 1345.4 1510 502.7" stroke="url(#paint14_linear_170_177)" stroke-width="2" stroke-linecap="round"/>
<path opacity="0.3" d="M-2 458.975C250 5.82498 502 110.5 754 773C1006 1435.5 1258 1330.82 1510 458.975" stroke="url(#paint15_linear_170_177)" stroke-width="2" stroke-linecap="round"/>
<path opacity="0.52" d="M-2 415.25C250 -8.75 502 110.5 754 773C1006 1435.5 1258 1316.25 1510 415.25" stroke="url(#paint16_linear_170_177)" stroke-width="2" stroke-linecap="round"/>
<path opacity="0.63" d="M-2 371.525C250 -23.325 502 110.5 754 773C1006 1435.5 1258 1301.67 1510 371.525" stroke="url(#paint17_linear_170_177)" stroke-width="2" stroke-linecap="round"/>
<path opacity="0.39" d="M-2 327.8C250 -37.9 502 110.5 754 773C1006 1435.5 1258 1287.1 1510 327.8" stroke="url(#paint18_linear_170_177)" stroke-width="2" stroke-linecap="round"/>
<path opacity="0.97" d="M-2 284.075C250 -52.475 502 110.5 754 773C1006 1435.5 1258 1272.53 1510 284.075" stroke="url(#paint19_linear_170_177)" stroke-width="2" stroke-linecap="round"/>
<path opacity="0.09" d="M-2 240.35C250 -67.05 502 110.5 754 773C1006 1435.5 1258 1257.95 1510 240.35" stroke="url(#paint20_linear_170_177)" stroke-width="2" stroke-linecap="round"/>
<path opacity="0.1" d="M-2 196.625C250 -81.625 502 110.5 754 773C1006 1435.5 1258 1243.37 1510 196.625" stroke="url(#paint21_linear_170_177)" stroke-width="2" stroke-linecap="round"/>
<path opacity="0.79" d="M-2 152.9C250 -96.2 502 110.5 754 773C1006 1435.5 1258 1228.8 1510 152.9" stroke="url(#paint22_linear_170_177)" stroke-width="2" stroke-linecap="round"/>
<path opacity="0.35" d="M-2 109.175C250 -110.775 502 110.5 754 773C1006 1435.5 1258 1214.22 1510 109.175" stroke="url(#paint23_linear_170_177)" stroke-width="2" stroke-linecap="round"/>
<path opacity="0.86" d="M-2 65.45C250 -125.35 502 110.5 754 773C1006 1435.5 1258 1199.65 1510 65.45" stroke="url(#paint24_linear_170_177)" stroke-width="2" stroke-linecap="round"/>
<defs>
<linearGradient id="paint0_linear_170_177" x1="754" y1="349.045" x2="754" y2="1373.09" gradientUnits="userSpaceOnUse">
<stop stop-color="#006AFF"/>
<stop offset="1" stop-color="#0065B3"/>
</linearGradient>
<linearGradient id="paint1_linear_170_177" x1="754" y1="340.935" x2="754" y2="1357.56" gradientUnits="userSpaceOnUse">
<stop stop-color="#006AFF"/>
<stop offset="1" stop-color="#0065B3"/>
</linearGradient>
<linearGradient id="paint2_linear_170_177" x1="754" y1="332.508" x2="754" y2="1342.81" gradientUnits="userSpaceOnUse">
<stop stop-color="#006AFF"/>
<stop offset="1" stop-color="#0065B3"/>
</linearGradient>
<linearGradient id="paint3_linear_170_177" x1="754" y1="323.746" x2="754" y2="1328.79" gradientUnits="userSpaceOnUse">
<stop stop-color="#006AFF"/>
<stop offset="1" stop-color="#0065B3"/>
</linearGradient>
<linearGradient id="paint4_linear_170_177" x1="754" y1="314.628" x2="754" y2="1315.44" gradientUnits="userSpaceOnUse">
<stop stop-color="#006AFF"/>
<stop offset="1" stop-color="#0065B3"/>
</linearGradient>
<linearGradient id="paint5_linear_170_177" x1="754" y1="305.133" x2="754" y2="1302.72" gradientUnits="userSpaceOnUse">
<stop stop-color="#006AFF"/>
<stop offset="1" stop-color="#0065B3"/>
</linearGradient>
<linearGradient id="paint6_linear_170_177" x1="754" y1="295.236" x2="754" y2="1290.58" gradientUnits="userSpaceOnUse">
<stop stop-color="#006AFF"/>
<stop offset="1" stop-color="#0065B3"/>
</linearGradient>
<linearGradient id="paint7_linear_170_177" x1="754" y1="284.911" x2="754" y2="1278.98" gradientUnits="userSpaceOnUse">
<stop stop-color="#006AFF"/>
<stop offset="1" stop-color="#0065B3"/>
</linearGradient>
<linearGradient id="paint8_linear_170_177" x1="754" y1="274.13" x2="754" y2="1267.9" gradientUnits="userSpaceOnUse">
<stop stop-color="#006AFF"/>
<stop offset="1" stop-color="#0065B3"/>
</linearGradient>
<linearGradient id="paint9_linear_170_177" x1="754" y1="262.861" x2="754" y2="1257.28" gradientUnits="userSpaceOnUse">
<stop stop-color="#006AFF"/>
<stop offset="1" stop-color="#0065B3"/>
</linearGradient>
<linearGradient id="paint10_linear_170_177" x1="754" y1="251.072" x2="754" y2="1247.12" gradientUnits="userSpaceOnUse">
<stop stop-color="#006AFF"/>
<stop offset="1" stop-color="#0065B3"/>
</linearGradient>
<linearGradient id="paint11_linear_170_177" x1="754" y1="238.726" x2="754" y2="1237.37" gradientUnits="userSpaceOnUse">
<stop stop-color="#006AFF"/>
<stop offset="1" stop-color="#0065B3"/>
</linearGradient>
<linearGradient id="paint12_linear_170_177" x1="754" y1="225.781" x2="754" y2="1228.01" gradientUnits="userSpaceOnUse">
<stop stop-color="#006AFF"/>
<stop offset="1" stop-color="#0065B3"/>
</linearGradient>
<linearGradient id="paint13_linear_170_177" x1="754" y1="212.193" x2="754" y2="1219.03" gradientUnits="userSpaceOnUse">
<stop stop-color="#006AFF"/>
<stop offset="1" stop-color="#0065B3"/>
</linearGradient>
<linearGradient id="paint14_linear_170_177" x1="754" y1="197.913" x2="754" y2="1210.39" gradientUnits="userSpaceOnUse">
<stop stop-color="#006AFF"/>
<stop offset="1" stop-color="#0065B3"/>
</linearGradient>
<linearGradient id="paint15_linear_170_177" x1="754" y1="182.887" x2="754" y2="1202.08" gradientUnits="userSpaceOnUse">
<stop stop-color="#006AFF"/>
<stop offset="1" stop-color="#0065B3"/>
</linearGradient>
<linearGradient id="paint16_linear_170_177" x1="754" y1="167.055" x2="754" y2="1194.08" gradientUnits="userSpaceOnUse">
<stop stop-color="#006AFF"/>
<stop offset="1" stop-color="#0065B3"/>
</linearGradient>
<linearGradient id="paint17_linear_170_177" x1="754" y1="150.35" x2="754" y2="1186.37" gradientUnits="userSpaceOnUse">
<stop stop-color="#006AFF"/>
<stop offset="1" stop-color="#0065B3"/>
</linearGradient>
<linearGradient id="paint18_linear_170_177" x1="754" y1="132.697" x2="754" y2="1178.94" gradientUnits="userSpaceOnUse">
<stop stop-color="#006AFF"/>
<stop offset="1" stop-color="#0065B3"/>
</linearGradient>
<linearGradient id="paint19_linear_170_177" x1="754" y1="114.015" x2="754" y2="1171.78" gradientUnits="userSpaceOnUse">
<stop stop-color="#006AFF"/>
<stop offset="1" stop-color="#0065B3"/>
</linearGradient>
<linearGradient id="paint20_linear_170_177" x1="754" y1="94.209" x2="754" y2="1164.86" gradientUnits="userSpaceOnUse">
<stop stop-color="#006AFF"/>
<stop offset="1" stop-color="#0065B3"/>
</linearGradient>
<linearGradient id="paint21_linear_170_177" x1="754" y1="73.1761" x2="754" y2="1158.17" gradientUnits="userSpaceOnUse">
<stop stop-color="#006AFF"/>
<stop offset="1" stop-color="#0065B3"/>
</linearGradient>
<linearGradient id="paint22_linear_170_177" x1="754" y1="50.7979" x2="754" y2="1151.72" gradientUnits="userSpaceOnUse">
<stop stop-color="#006AFF"/>
<stop offset="1" stop-color="#0065B3"/>
</linearGradient>
<linearGradient id="paint23_linear_170_177" x1="754" y1="26.9414" x2="754" y2="1145.47" gradientUnits="userSpaceOnUse">
<stop stop-color="#006AFF"/>
<stop offset="1" stop-color="#0065B3"/>
</linearGradient>
<linearGradient id="paint24_linear_170_177" x1="754" y1="1.45496" x2="754" y2="1139.43" gradientUnits="userSpaceOnUse">
<stop stop-color="#006AFF"/>
<stop offset="1" stop-color="#0065B3"/>
</linearGradient>
</defs>
</svg>
