<svg width="35" height="34" viewBox="0 0 35 34" fill="none" xmlns="http://www.w3.org/2000/svg">
<path d="M28.533 18.9158L28.5396 18.9191C28.6426 18.2916 28.6924 17.6508 28.6924 17.0166C28.6924 16.4488 28.6492 15.8777 28.5695 15.3199C28.6492 15.8744 28.6891 16.4355 28.6891 16.9967C28.6891 17.6408 28.6359 18.285 28.533 18.9158ZM3.28867 13.2182C3.27207 13.2049 3.25879 13.1916 3.24219 13.175C3.26543 13.1982 3.28867 13.2215 3.31523 13.2447L5.49004 15.1008V15.0975L3.28867 13.2182ZM21.1055 6.04629H21.1088L20.5941 3.26387C20.5875 3.23066 20.5809 3.20078 20.5709 3.1709C20.5742 3.1875 20.5809 3.20742 20.5842 3.22402L21.1055 6.04629ZM22.8984 24.1918L23.941 23.3352L27.0223 24.4275C27.5867 23.6672 28.0615 22.8504 28.4367 21.9838L25.9564 19.8621L26.1756 18.5307C26.2586 18.0293 26.3018 17.5146 26.3018 17C26.3018 16.4854 26.2586 15.9707 26.1756 15.4693L25.9598 14.1445L28.44 12.0229C28.0615 11.1596 27.59 10.3395 27.0256 9.5791L23.9443 10.6715L22.9018 9.81484C22.1082 9.16406 21.2217 8.65273 20.2688 8.29414L19.0037 7.81934L18.4094 4.59863C17.4716 4.49238 16.5249 4.49238 15.5871 4.59863L14.9928 7.82598L13.7344 8.30078C12.7881 8.65938 11.9082 9.1707 11.1213 9.81816L10.0787 10.6781L6.97754 9.57578C6.41309 10.3361 5.93828 11.1529 5.56309 12.0195L8.06992 14.1611L7.8541 15.4893C7.77109 15.984 7.73125 16.492 7.73125 17C7.73125 17.5047 7.77441 18.016 7.8541 18.5107L8.06992 19.8389L5.56309 21.9805C5.9416 22.8438 6.41309 23.6639 6.97754 24.4242L10.0787 23.3219L11.1213 24.1818C11.9082 24.8293 12.7881 25.3406 13.7344 25.6992L14.9895 26.1807L15.5838 29.408C16.5201 29.5143 17.473 29.5143 18.4061 29.408L19.0004 26.1873L20.2654 25.7125C21.2217 25.3539 22.1049 24.8426 22.8984 24.1918ZM17.0182 22.5217C16.0055 22.5217 15.0525 22.2627 14.2191 21.8078C12.3963 20.8184 11.1578 18.8893 11.1578 16.668C11.1578 13.4406 13.7742 10.8242 17.0016 10.8242C19.2229 10.8242 21.152 12.0627 22.1414 13.8855C22.5963 14.7156 22.8553 15.6686 22.8553 16.6846C22.8553 19.9086 20.2422 22.5217 17.0182 22.5217ZM6.88125 26.9875C6.69863 27.0506 6.50938 27.0639 6.33008 27.0273C6.51934 27.0672 6.71855 27.0605 6.91113 26.9941L9.61387 26.0312C9.61055 26.0279 9.60391 26.0246 9.60059 26.0213L6.88125 26.9875ZM30.7078 13.2182L28.533 15.0775C28.533 15.0842 28.5363 15.0941 28.5363 15.1008L30.7078 13.2447C30.9436 13.0422 31.0764 12.75 31.0797 12.4479C31.0697 12.74 30.9369 13.0223 30.7078 13.2182Z" fill="#BBBBBB" fill-opacity="0.15"/>
<path d="M31.0731 21.4691C31.0897 21.6252 31.0731 21.7846 31.0167 21.9373L30.9868 22.0236C30.3866 23.6963 29.4902 25.2473 28.3405 26.6024L28.2808 26.6721C28.1415 26.8367 27.9554 26.9551 27.7472 27.0114C27.539 27.0678 27.3186 27.0594 27.1153 26.9875L24.4159 26.0279C23.4256 26.8438 22.307 27.4901 21.1056 27.9404L20.5843 30.7627C20.5449 30.9751 20.4419 31.1704 20.2889 31.3228C20.1359 31.4753 19.9401 31.5775 19.7276 31.616L19.638 31.6326C18.7702 31.7895 17.8901 31.8684 17.0083 31.8684H17.0183C17.9048 31.8684 18.7913 31.7887 19.6546 31.6326L19.7442 31.616C19.9567 31.5775 20.1525 31.4753 20.3055 31.3228C20.4585 31.1704 20.5615 30.9751 20.6009 30.7627L21.1222 27.9438C22.3241 27.4922 23.4331 26.8514 24.4292 26.0346L27.1253 26.9941C27.3286 27.0661 27.549 27.0744 27.7572 27.0181C27.9653 26.9617 28.1514 26.8434 28.2907 26.6787L28.3505 26.609C29.506 25.2443 30.3925 23.707 30.9935 22.0369L31.0233 21.9506C31.0765 21.7945 31.0931 21.6285 31.0731 21.4691Z" fill="#BBBBBB" fill-opacity="0.15"/>
<path d="M22.8452 16.668C22.8452 15.6619 22.5896 14.7123 22.1413 13.8855C21.1519 12.0627 19.2228 10.8242 17.0015 10.8242C13.7741 10.8242 11.1577 13.4406 11.1577 16.668C11.1577 18.8893 12.3962 20.8184 14.219 21.8078C15.0458 22.2561 15.9921 22.5117 17.0015 22.5117C20.2288 22.5117 22.8452 19.8953 22.8452 16.668ZM13.2827 16.668C13.2827 15.6752 13.6712 14.7422 14.3718 14.0383C15.0757 13.3344 16.0087 12.9492 17.0015 12.9492C17.9942 12.9492 18.9272 13.3344 19.6312 14.0383C19.9771 14.3832 20.2513 14.7931 20.4382 15.2444C20.6251 15.6957 20.721 16.1795 20.7202 16.668C20.7202 17.6607 20.3317 18.5938 19.6312 19.2977C19.2862 19.6436 18.8763 19.9178 18.425 20.1047C17.9737 20.2917 17.4899 20.3875 17.0015 20.3867C16.0087 20.3867 15.0757 19.9982 14.3718 19.2977C14.0259 18.9527 13.7516 18.5429 13.5647 18.0916C13.3778 17.6402 13.282 17.1564 13.2827 16.668Z" fill="#BBBBBB"/>
<path d="M19.7273 31.616C19.9398 31.5775 20.1355 31.4753 20.2885 31.3228C20.4415 31.1704 20.5446 30.9751 20.5839 30.7627L21.1052 27.9404C22.3066 27.4901 23.4252 26.8438 24.4155 26.0279L27.1149 26.9875C27.3183 27.0594 27.5387 27.0678 27.7468 27.0114C27.955 26.9551 28.1411 26.8367 28.2804 26.6721L28.3401 26.6024C29.4956 25.2377 30.3855 23.6971 30.9864 22.0236L31.0163 21.9373C31.0728 21.7846 31.0894 21.6252 31.0728 21.4691C31.0429 21.2068 30.9167 20.9578 30.7075 20.7752L28.5394 18.9191L28.5327 18.9158C28.6357 18.285 28.6888 17.6408 28.6888 16.9967C28.6888 16.4356 28.6489 15.8711 28.5692 15.3199C28.5593 15.2469 28.546 15.1738 28.536 15.1008C28.536 15.0941 28.5327 15.0842 28.5327 15.0775L30.7075 13.2182C30.9366 13.0223 31.0694 12.74 31.0794 12.4479C31.0827 12.315 31.0628 12.1789 31.0163 12.0494L30.9864 11.9631C30.3877 10.2897 29.4912 8.73852 28.3401 7.38438L28.2804 7.31465C28.1407 7.15047 27.9546 7.03245 27.7466 6.97614C27.5386 6.91983 27.3183 6.92788 27.1149 6.99922L24.4155 7.9588C23.4194 7.142 22.3105 6.49786 21.1085 6.0463H21.1052L20.5839 3.22403C20.5806 3.20743 20.5773 3.18751 20.5706 3.1709C20.5227 2.97016 20.4174 2.78766 20.2677 2.6456C20.118 2.50354 19.9302 2.40804 19.7273 2.37071L19.6376 2.35411C17.9077 2.042 16.0882 2.042 14.3583 2.35411L14.2687 2.37071C14.0561 2.40921 13.8604 2.51147 13.7074 2.66389C13.5544 2.8163 13.4513 3.01167 13.412 3.22403L12.8874 6.05958C11.695 6.51123 10.5847 7.15503 9.6003 7.96544L6.88096 6.99922C6.67765 6.92731 6.45726 6.91898 6.24909 6.97532C6.04092 7.03166 5.85483 7.15001 5.71553 7.31465L5.65577 7.38438C4.5061 8.73948 3.60971 10.2904 3.00948 11.9631L2.9796 12.0494C2.9104 12.2424 2.89835 12.4512 2.94487 12.6509C2.9914 12.8505 3.09453 13.0325 3.2419 13.175C3.2585 13.1883 3.27178 13.2049 3.28839 13.2182L5.48975 15.0975V15.1008C5.38682 15.725 5.33702 16.3592 5.33702 16.9934C5.33702 17.6309 5.38682 18.2684 5.48975 18.8893L3.28839 20.7686C3.12435 20.909 3.00694 21.096 2.95179 21.3048C2.89663 21.5136 2.90633 21.7342 2.9796 21.9373L3.00948 22.0236C3.61046 23.6971 4.5003 25.241 5.65577 26.6024L5.71553 26.6721C5.87823 26.8613 6.09405 26.9842 6.32979 27.0274C6.50909 27.0606 6.69835 27.0506 6.88096 26.9875L9.6003 26.0213C9.60362 26.0246 9.61026 26.0279 9.61358 26.0313C10.5997 26.8381 11.6987 27.4789 12.8874 27.9272L13.412 30.7627C13.4513 30.9751 13.5544 31.1704 13.7074 31.3228C13.8604 31.4753 14.0561 31.5775 14.2687 31.616L14.3583 31.6326C15.2249 31.7887 16.1114 31.8684 16.998 31.8684H17.0079C17.8911 31.8684 18.7776 31.7887 19.6376 31.6326L19.7273 31.616ZM18.4058 29.408C17.468 29.5143 16.5213 29.5143 15.5835 29.408L14.9892 26.1807L13.7341 25.6992C12.7878 25.3406 11.9079 24.8293 11.121 24.1818L10.0784 23.3219L6.97725 24.4242C6.4128 23.6639 5.94132 22.8438 5.5628 21.9805L8.06964 19.8389L7.85382 18.5107C7.77413 18.016 7.73096 17.5047 7.73096 17C7.73096 16.492 7.77081 15.984 7.85382 15.4893L8.06964 14.1611L5.5628 12.0195C5.93799 11.1529 6.4128 10.3361 6.97725 9.57579L10.0784 10.6781L11.121 9.81817C11.9079 9.17071 12.7878 8.65938 13.7341 8.30079L14.9925 7.82598L15.5868 4.59864C16.5198 4.49239 17.4728 4.49239 18.4091 4.59864L19.0034 7.81934L20.2685 8.29415C21.2214 8.65274 22.1079 9.16407 22.9015 9.81485L23.944 10.6715L27.0253 9.57911C27.5898 10.3395 28.0612 11.1596 28.4398 12.0229L25.9595 14.1445L26.1753 15.4693C26.2583 15.9707 26.3015 16.4854 26.3015 17C26.3015 17.5147 26.2583 18.0293 26.1753 18.5307L25.9562 19.8621L28.4364 21.9838C28.0604 22.85 27.5858 23.67 27.022 24.4275L23.9407 23.3352L22.8981 24.1918C22.1046 24.8426 21.2214 25.3539 20.2651 25.7125L19.0001 26.1873L18.4058 29.408Z" fill="#BBBBBB"/>
</svg>
